<svg xmlns="http://www.w3.org/2000/svg" viewBox="0 0 19.69 19.69"><defs><style>.cls-1{fill:#f2f2f2;}</style></defs><title>Asset 4</title><g id="Layer_2" data-name="Layer 2"><g id="Quienes_Somos" data-name="Quienes Somos"><path class="cls-1" d="M9.85,1.77c2.63,0,2.94,0,4,.06a5.63,5.63,0,0,1,1.82.34A3.23,3.23,0,0,1,17.52,4a5.25,5.25,0,0,1,.34,1.83c.05,1,.06,1.35.06,4s0,2.94-.06,4a5.12,5.12,0,0,1-.34,1.82,3.16,3.16,0,0,1-1.87,1.87,5.12,5.12,0,0,1-1.82.34c-1,.05-1.35.06-4,.06s-2.94,0-4-.06A5.25,5.25,0,0,1,4,17.52a3.23,3.23,0,0,1-1.87-1.87,5.63,5.63,0,0,1-.34-1.82c-.05-1-.06-1.35-.06-4s0-2.94.06-4A5.78,5.78,0,0,1,2.17,4a3,3,0,0,1,.74-1.13A3,3,0,0,1,4,2.17a5.78,5.78,0,0,1,1.83-.34c1-.05,1.35-.06,4-.06M9.85,0c-2.68,0-3,0-4.06.06A7.07,7.07,0,0,0,3.4.52,4.95,4.95,0,0,0,.52,3.4,7.07,7.07,0,0,0,.06,5.79C0,6.84,0,7.17,0,9.85s0,3,.06,4.06A7.17,7.17,0,0,0,.52,16.3,5,5,0,0,0,1.65,18,4.81,4.81,0,0,0,3.4,19.18a7.09,7.09,0,0,0,2.39.45c1,.05,1.38.06,4.06.06s3,0,4.06-.06a7.2,7.2,0,0,0,2.39-.45,5.1,5.1,0,0,0,2.88-2.88,7.2,7.2,0,0,0,.45-2.39c.05-1.05.06-1.39.06-4.06s0-3-.06-4.06a7.09,7.09,0,0,0-.45-2.39A4.81,4.81,0,0,0,18,1.65,5,5,0,0,0,16.3.52,7.17,7.17,0,0,0,13.91.06C12.86,0,12.52,0,9.85,0"/><path class="cls-1" d="M9.85,4.79A5.06,5.06,0,1,0,14.9,9.85,5.05,5.05,0,0,0,9.85,4.79m0,8.34a3.29,3.29,0,1,1,3.28-3.28,3.28,3.28,0,0,1-3.28,3.28"/><path class="cls-1" d="M16.28,4.59A1.18,1.18,0,1,1,15.1,3.41a1.18,1.18,0,0,1,1.18,1.18"/></g></g></svg>