<svg xmlns="http://www.w3.org/2000/svg" viewBox="0 0 30.24 21.3"><defs><style>.cls-1{fill:#f2f2f2;}</style></defs><title>Asset 2</title><g id="Layer_2" data-name="Layer 2"><g id="Quienes_Somos" data-name="Quienes Somos"><path class="cls-1" d="M29.6,3.33A3.78,3.78,0,0,0,26.93.64C24.57,0,15.12,0,15.12,0S5.66,0,3.31.64A3.79,3.79,0,0,0,.63,3.33,39.9,39.9,0,0,0,0,10.65,40.05,40.05,0,0,0,.63,18a3.79,3.79,0,0,0,2.68,2.69c2.35.63,11.81.63,11.81.63s9.45,0,11.81-.63A3.78,3.78,0,0,0,29.6,18a39.44,39.44,0,0,0,.64-7.33A39.29,39.29,0,0,0,29.6,3.33ZM12,15.15v-9l7.9,4.49Z"/></g></g></svg>