<svg xmlns="http://www.w3.org/2000/svg" viewBox="0 0 61.18 40.83"><defs><style>.cls-1{fill:#59ba8e;}</style></defs><title>accion</title><g id="Layer_2" data-name="Layer 2"><g id="Quienes_Somos" data-name="Quienes Somos"><path class="cls-1" d="M39.82,0a3.5,3.5,0,0,0-2.88,1.79c-2.75,4.14-5.59,8.43-18.45,8.43h-.7c-4.63-.06-7.48-.07-9.24-.07a13.17,13.17,0,0,0-3.13.14C4,10.58.3,11.91,0,18.11a1.36,1.36,0,0,0,0,.2v.17a1.23,1.23,0,0,0,0,.2c.28,6.2,4,7.54,5.4,7.82a12.36,12.36,0,0,0,3.13.15h.06l7.7,12.61a3.73,3.73,0,0,0,3.1,1.57,5.37,5.37,0,0,0,2.36-.6C26.26,38,26.26,38,25.9,37.32L19.75,26.6c.62,0,1.23,0,1.8.08a.93.93,0,0,0,.23,0l.11,0c10,.71,12.57,4.56,15.07,8.34a3.48,3.48,0,0,0,2.86,1.75,3.16,3.16,0,0,0,2.16-.9,2.91,2.91,0,0,0,.93-2V3A3.14,3.14,0,0,0,39.82,0ZM24.3,37.39c-.5.26-1.44.72-3.16,1.56-2.43,1.19-3.52-.3-3.62-.45L10.28,26.65l7.51-.07h.3ZM21.07,25.21c-.82,0-1.67-.06-2.58-.06h-.71c-8.29.1-10.88.08-11.54.06A1,1,0,0,0,6,25.15c-.18,0-4.34-.27-4.57-6.67a.19.19,0,0,0,0-.08.28.28,0,0,0,0-.09c.23-6.39,4.39-6.66,4.56-6.67a.59.59,0,0,0,.23-.05c.67,0,3.26-.05,11.55.05h.71c.91,0,1.76,0,2.58-.06Zm20.42,8.63a1.54,1.54,0,0,1-.5,1,1.72,1.72,0,0,1-1.17.5,2.15,2.15,0,0,1-1.7-1.15c-2.64-4-5.38-8.07-15.63-8.91V11.48c10.25-.83,13-4.93,15.66-8.94a2.09,2.09,0,0,1,1.67-1.12A1.74,1.74,0,0,1,41.49,3V33.84ZM13.24,14.94H6.38a.72.72,0,0,0,0,1.43h6.86a.72.72,0,0,0,0-1.43Zm0,4.55H6.38a.71.71,0,1,0,0,1.42h6.86a.71.71,0,0,0,0-1.42ZM54.63,4.68a.71.71,0,0,0-.87,1.13,15.64,15.64,0,0,1,6,12.36,15.45,15.45,0,0,1-5.9,12.28.71.71,0,0,0-.12,1,.72.72,0,0,0,.56.28.75.75,0,0,0,.44-.15,17.17,17.17,0,0,0-.11-26.9ZM49,9.06a.71.71,0,1,0-.92,1.08A10,10,0,0,1,52,17.71a10,10,0,0,1-3.83,7.54.71.71,0,0,0-.08,1,.69.69,0,0,0,.54.25.75.75,0,0,0,.47-.17,11.41,11.41,0,0,0,4.32-8.62A11.42,11.42,0,0,0,49,9.06Z"/></g></g></svg>