<svg xmlns="http://www.w3.org/2000/svg" viewBox="0 0 45.46 45.46"><defs><style>.cls-1{fill:#59ba8e;}</style></defs><title>comunicacion</title><g id="Layer_2" data-name="Layer 2"><g id="Quienes_Somos" data-name="Quienes Somos"><path class="cls-1" d="M42.57,10.14H32.75V2.89A2.9,2.9,0,0,0,29.86,0h-27A2.9,2.9,0,0,0,0,2.89v23.2A2.9,2.9,0,0,0,2.89,29h.88l5.42,6.14a.57.57,0,0,0,.43.2.79.79,0,0,0,.2,0,.56.56,0,0,0,.36-.53V29h2.53v7.25a2.89,2.89,0,0,0,2.89,2.89H30.52l0,5.77a.58.58,0,0,0,.37.53.51.51,0,0,0,.2,0,.57.57,0,0,0,.43-.2L37,39.12h5.61a2.9,2.9,0,0,0,2.89-2.89V13A2.9,2.9,0,0,0,42.57,10.14ZM9.62,27.84a.57.57,0,0,0-.57.57v4.83L4.45,28A.55.55,0,0,0,4,27.84H2.89a1.75,1.75,0,0,1-1.75-1.75V2.89A1.75,1.75,0,0,1,2.89,1.14h27a1.75,1.75,0,0,1,1.75,1.75v7.25h-16A2.89,2.89,0,0,0,12.71,13V27.84ZM36.7,38a.53.53,0,0,0-.42.2l-4.61,5.21,0-4.84a.57.57,0,0,0-.56-.57H19.67c.3-4.34,4.42-8,9.1-8h.54c4.68,0,8.8,3.71,9.1,8Zm7.62-1.75A1.75,1.75,0,0,1,42.57,38h-3c-.3-4.95-4.95-9.19-10.24-9.19h-.54c-5.29,0-9.94,4.24-10.24,9.19H15.6a1.75,1.75,0,0,1-1.76-1.75V13a1.75,1.75,0,0,1,1.76-1.75h27A1.75,1.75,0,0,1,44.32,13Z"/><path class="cls-1" d="M29,15.05a5.64,5.64,0,1,0,5.64,5.64A5.65,5.65,0,0,0,29,15.05Zm0,10.14a4.5,4.5,0,1,1,4.5-4.5A4.51,4.51,0,0,1,29,25.19Z"/></g></g></svg>