<svg xmlns="http://www.w3.org/2000/svg" viewBox="0 0 48.01 40.04"><defs><style>.cls-1{fill:#ff6862;}</style></defs><title>construccion</title><g id="Layer_2" data-name="Layer 2"><g id="Layer_1-2" data-name="Layer 1"><path class="cls-1" d="M27.69,2a4.34,4.34,0,0,0-7.36,0L.7,33.26a4.37,4.37,0,0,0-.13,4.52A4.29,4.29,0,0,0,4.38,40H43.64a4.3,4.3,0,0,0,3.81-2.26,4.37,4.37,0,0,0-.13-4.52Zm18,34.73a2.35,2.35,0,0,1-2,1.27H4.38a2.33,2.33,0,0,1-2.06-1.23,2.38,2.38,0,0,1,.07-2.48L22,3.15a2.34,2.34,0,0,1,3.21-.79,2.48,2.48,0,0,1,.79.79L45.63,34.33h0a2.4,2.4,0,0,1,.07,2.48ZM29.87,33.55a1,1,0,0,1-1.37.35,8.71,8.71,0,0,0-9,0,1,1,0,0,1-1-1.72,10.7,10.7,0,0,1,11,0,1,1,0,0,1,.37,1.36Zm-11.15-9.8a1,1,0,0,1-1.42,0h0l-.29-.3-.29.3a1,1,0,0,1-1.42,0h0a1,1,0,0,1,0-1.41h0l.3-.29-.3-.29a1,1,0,0,1,0-1.42,1,1,0,0,1,1.42,0l.29.3.29-.3a1,1,0,0,1,1.42,1.42l-.3.29.3.29a1,1,0,0,1,.07,1.39S18.76,23.76,18.72,23.75Zm14-2-.3.29.3.29a1,1,0,0,1,0,1.41h0a1,1,0,0,1-1.42,0h0l-.29-.3-.29.3a1,1,0,0,1-1.42,0h0a1,1,0,0,1,0-1.41h0l.3-.29-.3-.29a1,1,0,0,1,0-1.42,1,1,0,0,1,1.42,0l.29.3.29-.3a1,1,0,0,1,1.42,1.42Z"/></g></g></svg>