<svg xmlns="http://www.w3.org/2000/svg" viewBox="0 0 42.33 42.33"><defs><style>.cls-1{fill:#59ba8e;}</style></defs><title>desarrolloinstitucional</title><g id="Layer_2" data-name="Layer 2"><g id="Quienes_Somos" data-name="Quienes Somos"><path class="cls-1" d="M37.74,33.15a4.57,4.57,0,0,0-2.65.85l-9.28-9.27a5.82,5.82,0,0,0,0-7.13l9.28-9.27A4.56,4.56,0,1,0,34,7.25l-9.27,9.27a5.82,5.82,0,0,0-7.13,0L8.33,7.25A4.59,4.59,0,1,0,7.25,8.33l9.27,9.27a5.82,5.82,0,0,0,0,7.13L7.25,34a4.64,4.64,0,1,0,1.08,1.09l9.27-9.28a5.82,5.82,0,0,0,7.13,0L34,35.09a4.58,4.58,0,1,0,3.74-1.94Zm0-31.62a3.06,3.06,0,1,1-3.06,3.06A3.06,3.06,0,0,1,37.74,1.53ZM4.59,7.65A3.06,3.06,0,1,1,7.65,4.59,3.06,3.06,0,0,1,4.59,7.65Zm0,33.15a3.06,3.06,0,1,1,3.06-3.06A3.06,3.06,0,0,1,4.59,40.8ZM16.83,21.17a4.34,4.34,0,1,1,4.34,4.33A4.35,4.35,0,0,1,16.83,21.17ZM37.74,40.8a3.06,3.06,0,1,1,3.06-3.06A3.06,3.06,0,0,1,37.74,40.8Z"/><path class="cls-1" d="M21.17,18.11a.5.5,0,0,0-.51.51.51.51,0,0,0,.51.51,2,2,0,0,1,2,2,.51.51,0,0,0,.51.51.51.51,0,0,0,.51-.51A3.07,3.07,0,0,0,21.17,18.11Z"/><path class="cls-1" d="M37.74,36a.51.51,0,0,0-.51.51.51.51,0,0,0,.51.51.77.77,0,0,1,.77.76.51.51,0,0,0,.51.51.51.51,0,0,0,.51-.51A1.79,1.79,0,0,0,37.74,36Z"/><path class="cls-1" d="M37.74,3.83a.77.77,0,0,1,.77.76A.51.51,0,0,0,39,5.1a.51.51,0,0,0,.51-.51,1.79,1.79,0,0,0-1.79-1.78.51.51,0,0,0-.51.51A.51.51,0,0,0,37.74,3.83Z"/><path class="cls-1" d="M4.59,2.81a.51.51,0,0,0-.51.51.51.51,0,0,0,.51.51.77.77,0,0,1,.77.76.51.51,0,0,0,.51.51.51.51,0,0,0,.51-.51A1.79,1.79,0,0,0,4.59,2.81Z"/><path class="cls-1" d="M4.59,36a.51.51,0,0,0-.51.51.51.51,0,0,0,.51.51.77.77,0,0,1,.77.76.51.51,0,0,0,.51.51.51.51,0,0,0,.51-.51A1.79,1.79,0,0,0,4.59,36Z"/><path class="cls-1" d="M19.89,23.21a.77.77,0,0,1-.76-.77.51.51,0,0,0-.51-.51.51.51,0,0,0-.51.51,1.79,1.79,0,0,0,1.78,1.79.51.51,0,0,0,.51-.51A.51.51,0,0,0,19.89,23.21Z"/></g></g></svg>