<svg xmlns="http://www.w3.org/2000/svg" viewBox="0 0 45.5 42.03"><defs><style>.cls-1{fill:#f2f2f2;}</style></defs><title>Asset 1</title><g id="Layer_2" data-name="Layer 2"><g id="Quienes_Somos" data-name="Quienes Somos"><path class="cls-1" d="M.54,34.05a.52.52,0,0,0,.36-.14c1.06-.93,2-1.83,3-2.71A10.65,10.65,0,0,0,5,34.14a1.8,1.8,0,0,0-.18,1.75,1.5,1.5,0,0,0,.22.39A1.82,1.82,0,0,0,6.45,37h.22a1.78,1.78,0,0,0,.63-.2A8.28,8.28,0,0,0,9.69,38L6.81,41.12a.54.54,0,0,0,0,.77.55.55,0,0,0,.77,0h0l3.49-3.79h0L14.9,34a2.6,2.6,0,0,1,1.82-.45h0l8.59.55a10.9,10.9,0,0,0,5.27-1,7.94,7.94,0,0,0,1.92-1.28l12.78-11.2a.53.53,0,0,0,.07-.74A3.93,3.93,0,0,0,40,19l-.29.21a3.35,3.35,0,0,0-4.12-.57h0l-.6.42a4.39,4.39,0,0,0-5.09.11l-3,2.1-4.21.5A6.16,6.16,0,0,1,20,21.49c-3.37-1.16-6.75-1-9,.51a7.5,7.5,0,0,0-2,2.18c-.18.24-.36.5-.55.74a28.81,28.81,0,0,1-2.18,2.46c-.71.74-1.46,1.49-2.25,2.26L.18,33.1a.55.55,0,0,0,.36.95Zm6.4,1.67h0a.72.72,0,0,1-1-.08.72.72,0,0,1,.46-1.19h.09a.73.73,0,0,1,.72.73.73.73,0,0,1-.24.54ZM36.21,19.55a2.25,2.25,0,0,1,2.6.31l-5.26,3.7-.39.27a4.67,4.67,0,0,0-1-1.43Zm-5.68.51h0a3.3,3.3,0,0,1,3.48-.3l-2.79,2a4.66,4.66,0,0,0-2.15-.63ZM7,28.14a32.7,32.7,0,0,0,2.26-2.55c.21-.26.39-.53.58-.79a6.69,6.69,0,0,1,1.74-1.89c2-1.3,5-1.45,8.08-.39a7.29,7.29,0,0,0,3.21.34l5.6-.66a3.62,3.62,0,0,1,3.1,1.15,6.72,6.72,0,0,0-2.8-.09,2.31,2.31,0,0,0-2,2c-.57.07-1.14.17-1.7.28a.57.57,0,0,0-.45.63.54.54,0,0,0,.63.44h0c.69-.14,1.4-.25,2.11-.33h0l.88-.08,4.48-.33a.72.72,0,0,0,.51-.27l.1-.12a.74.74,0,0,0,.15-.59h0l7.13-5a2.85,2.85,0,0,1,3.54.2L31.27,31.43A9.78,9.78,0,0,1,25.41,33l-8.57-.55a3.69,3.69,0,0,0-2.63.68l-.08.07L10.51,37.1A7.57,7.57,0,0,1,8.07,36a1.81,1.81,0,0,0-.79-2.44,1.86,1.86,0,0,0-1-.18,1.83,1.83,0,0,0-.39.09,9.37,9.37,0,0,1-1-3.17C5.57,29.56,6.29,28.84,7,28.14Zm25.12-3.29-3.9.28-.27,0a1.22,1.22,0,0,1,1-.81c1.11-.17,2.46-.18,3.19.51Z"/><path class="cls-1" d="M24.61,17.41h0a1.1,1.1,0,0,0,.8,0l0,0c7.41-3,9.92-8.49,9.12-12.6h0A5.46,5.46,0,0,0,29.26.05a7.6,7.6,0,0,0-4.21,1.46A7.5,7.5,0,0,0,20.8,0C18.13,0,16,1.88,15.49,4.8,14.69,9,17.2,14.47,24.61,17.41ZM16.56,5C17,2.59,18.64,1.09,20.8,1.09a6.68,6.68,0,0,1,3.92,1.52.54.54,0,0,0,.64,0,6.88,6.88,0,0,1,3.9-1.48C31.41,1.13,33,2.62,33.52,5c1,5.09-3.52,9.38-8.43,11.38H25C18.18,13.68,15.85,8.72,16.56,5Z"/></g></g></svg>