<svg xmlns="http://www.w3.org/2000/svg" viewBox="0 0 45.46 45.46"><defs><style>.cls-1{fill:#59ba8e;}</style></defs><title>incidenciapolitica</title><g id="Layer_2" data-name="Layer 2"><g id="Quienes_Somos" data-name="Quienes Somos"><path class="cls-1" d="M22.73,18.56A4.25,4.25,0,1,0,27,22.8,4.25,4.25,0,0,0,22.73,18.56Zm0,7.36a3.12,3.12,0,1,1,3.11-3.12A3.12,3.12,0,0,1,22.73,25.92Z"/><path class="cls-1" d="M25.42,29H20a2.51,2.51,0,0,0-2.47,2.13l-1.72,9.93a.57.57,0,0,0,.56.66h2.5v3.14a.57.57,0,0,0,.56.57H26a.57.57,0,0,0,.57-.57V41.75H29a.57.57,0,0,0,.44-.2.54.54,0,0,0,.12-.46l-1.71-9.92A2.51,2.51,0,0,0,25.42,29ZM26,40.62a.57.57,0,0,0-.57.57v3.13H20V41.19a.56.56,0,0,0-.57-.57H17.09l1.61-9.29A1.36,1.36,0,0,1,20,30.17h5.38a1.36,1.36,0,0,1,1.34,1.18l1.61,9.27Z"/><path class="cls-1" d="M11.13,22.8a4.25,4.25,0,1,0-4.25,4.25A4.24,4.24,0,0,0,11.13,22.8Zm-7.36,0a3.12,3.12,0,1,1,3.11,3.12A3.12,3.12,0,0,1,3.77,22.8Z"/><path class="cls-1" d="M3.63,45.46h6.51a.58.58,0,0,0,.57-.57V41.75H13.2a.57.57,0,0,0,.44-.2.58.58,0,0,0,.12-.46L12,31.17A2.5,2.5,0,0,0,9.57,29H4.19a2.5,2.5,0,0,0-2.46,2.13L0,41.09a.58.58,0,0,0,.12.46.57.57,0,0,0,.44.2H3.06v3.14A.58.58,0,0,0,3.63,45.46ZM1.24,40.62l1.61-9.29a1.36,1.36,0,0,1,1.34-1.16H9.57a1.37,1.37,0,0,1,1.35,1.18l1.61,9.27H10.14a.56.56,0,0,0-.57.57v3.13H4.2V41.19a.57.57,0,0,0-.57-.57Z"/><path class="cls-1" d="M42.82,22.8a4.25,4.25,0,1,0-4.25,4.25A4.24,4.24,0,0,0,42.82,22.8Zm-7.36,0a3.12,3.12,0,1,1,3.11,3.12A3.12,3.12,0,0,1,35.46,22.8Z"/><path class="cls-1" d="M33.42,31.16,31.7,41.09a.54.54,0,0,0,.12.46.57.57,0,0,0,.44.2h2.49v3.14a.58.58,0,0,0,.57.57h6.51a.58.58,0,0,0,.57-.57V41.75h2.49a.54.54,0,0,0,.43-.2.55.55,0,0,0,.13-.46l-1.72-9.92A2.5,2.5,0,0,0,41.26,29H35.88A2.5,2.5,0,0,0,33.42,31.16Zm2.46-1h5.38a1.37,1.37,0,0,1,1.35,1.18l1.6,9.27H41.83a.56.56,0,0,0-.57.57v3.13H35.89V41.19a.57.57,0,0,0-.57-.57H32.93l1.61-9.29A1.36,1.36,0,0,1,35.88,30.17Z"/><path class="cls-1" d="M3.41,11.22l3,0v3.86a.56.56,0,0,0,.33.51.52.52,0,0,0,.24,0,.58.58,0,0,0,.36-.12l5.3-4.27h4.44a3.41,3.41,0,0,0,3.41-3.41V3.41A3.41,3.41,0,0,0,17.05,0H3.41A3.41,3.41,0,0,0,0,3.41v4.4A3.41,3.41,0,0,0,3.41,11.22ZM1.14,3.41A2.27,2.27,0,0,1,3.41,1.14H17.05a2.27,2.27,0,0,1,2.27,2.27v4.4a2.27,2.27,0,0,1-2.27,2.27H12.41a.58.58,0,0,0-.36.12L7.52,13.86V10.62a.54.54,0,0,0-.17-.4.56.56,0,0,0-.4-.17h0l-3.53,0A2.27,2.27,0,0,1,1.14,7.81Z"/><path class="cls-1" d="M42.05,0H28.41A3.41,3.41,0,0,0,25,3.41v4.4a3.41,3.41,0,0,0,3.41,3.41h4.44l5.3,4.27a.57.57,0,0,0,.35.12.53.53,0,0,0,.25,0,.55.55,0,0,0,.32-.51V11.19l3,0a3.41,3.41,0,0,0,3.41-3.41V3.41A3.41,3.41,0,0,0,42.05,0Zm2.27,7.81a2.27,2.27,0,0,1-2.27,2.27l-3.53,0a.53.53,0,0,0-.4.17.54.54,0,0,0-.17.4v3.24L33.41,10.2a.58.58,0,0,0-.36-.12H28.41a2.27,2.27,0,0,1-2.27-2.27V3.41a2.27,2.27,0,0,1,2.27-2.27H42.05a2.27,2.27,0,0,1,2.27,2.27Z"/></g></g></svg>