<svg xmlns="http://www.w3.org/2000/svg" viewBox="0 0 19.22 15.62"><defs><style>.cls-1{fill:#f2f2f2;}</style></defs><title>Asset 3</title><g id="Layer_2" data-name="Layer 2"><g id="Quienes_Somos" data-name="Quienes Somos"><path class="cls-1" d="M0,13.85a11.17,11.17,0,0,0,6.05,1.77A11.15,11.15,0,0,0,17.26,3.89a7.76,7.76,0,0,0,2-2A8,8,0,0,1,17,2.47,4,4,0,0,0,18.69.29a8,8,0,0,1-2.5,1A3.94,3.94,0,0,0,9.47,4.84,11.16,11.16,0,0,1,1.34.72,4,4,0,0,0,2.56,6a3.87,3.87,0,0,1-1.79-.5A4,4,0,0,0,3.94,9.41a3.94,3.94,0,0,1-1.78.07,3.93,3.93,0,0,0,3.68,2.74A7.92,7.92,0,0,1,0,13.85Z"/></g></g></svg>